<?xml version="1.0" encoding="UTF-8"?>
<svg id="Layer_1" xmlns="http://www.w3.org/2000/svg" version="1.1" viewBox="0 0 24 24">
  <!-- Generator: Adobe Illustrator 30.3.0, SVG Export Plug-In . SVG Version: 2.1.3 Build 182)  -->
  <defs>
    <style>
      .st0, .st1 {
        fill: #fff;
      }

      .st1 {
        stroke: #000;
        stroke-miterlimit: 10;
        stroke-width: .5px;
      }
    </style>
  </defs>
  <path class="st0" d="M7.5,8l2.9,2.3-1.9-4.8-1,2.5ZM8.3.9C4.2.9.9,4.2.9,8.3s3.3,7.5,7.5,7.5,7.5-3.3,7.5-7.5S12.5.9,8.3.9ZM11.9,11.6c0,.3-.2.5-.5.5-.1,0-.3,0-.4-.2l-3.8-3.1-1.3,3.2h-1.1l3.3-7.8c0-.2.3-.3.5-.3.2,0,.4.1.5.3l3,7.1c0,0,0,.1,0,.2h0s0,0,0,0Z"/>
  <g>
    <g>
      <rect class="st1" x="11" y="11.5" width="11.6" height="1.3"/>
      <rect class="st1" x="8.6" y="11.5" width="1.3" height="1.3"/>
    </g>
    <g>
      <rect class="st1" x="11" y="13.7" width="11.6" height="1.3"/>
      <rect class="st1" x="8.6" y="13.7" width="1.3" height="1.3"/>
    </g>
    <g>
      <rect class="st1" x="10.9" y="15.9" width="11.6" height="1.3"/>
      <rect class="st1" x="8.6" y="15.9" width="1.3" height="1.3"/>
    </g>
    <g>
      <rect class="st1" x="10.9" y="18" width="11.6" height="1.3"/>
      <rect class="st1" x="8.6" y="18" width="1.3" height="1.3"/>
    </g>
    <g>
      <rect class="st1" x="10.9" y="20.2" width="11.6" height="1.3"/>
      <rect class="st1" x="8.6" y="20.2" width="1.3" height="1.3"/>
    </g>
  </g>
</svg>